<svg xmlns="http://www.w3.org/2000/svg" xmlns:xlink="http://www.w3.org/1999/xlink" version="1.1" id="Layer_2" x="0px" y="0px" viewBox="5.0 -10.0 100.0 135.0" enable-background="new 0 0 100 100" xml:space="preserve" height="100px" width="100px">
<path d="M91.5,36.5c-0.1-0.5-0.5-0.8-1-1l-14.2-4.7V16c0-0.5-0.2-0.9-0.6-1.3c-0.5-0.3-1-0.4-1.4-0.2L60,19.1L51.3,7  C51,6.6,50.6,6.4,50,6.4c-0.6,0-1,0.2-1.3,0.6L40,19.1l-14.2-4.6c-0.5-0.2-0.9-0.1-1.4,0.2c-0.4,0.3-0.6,0.7-0.6,1.3v14.9L9.5,35.5  c-0.5,0.2-0.8,0.5-1,1c-0.2,0.5-0.1,1,0.2,1.4L17.5,50L8.7,62c-0.3,0.4-0.4,0.9-0.2,1.4c0.1,0.5,0.5,0.8,1,1l14.2,4.7V84  c0,0.5,0.2,0.9,0.6,1.3c0.5,0.3,1,0.4,1.4,0.2L40,80.9L48.7,93c0.3,0.4,0.7,0.6,1.3,0.6s0.9-0.2,1.3-0.6L60,80.9l14.2,4.6  c0.5,0.2,0.9,0.1,1.4-0.2c0.4-0.3,0.6-0.7,0.6-1.3V69.1l14.2-4.7c0.5-0.2,0.8-0.5,1-1c0.2-0.6,0.1-1-0.2-1.4L82.5,50l8.8-12.1  C91.6,37.5,91.6,37,91.5,36.5z M75.8,60.9c-1.5,3.5-3.5,6.4-6,9c-2.5,2.5-5.5,4.5-9,6C57.4,77.3,53.8,78,50,78  c-3.8,0-7.4-0.7-10.9-2.2c-3.5-1.5-6.4-3.5-9-6c-2.5-2.5-4.5-5.5-6-9C22.7,57.4,22,53.8,22,50c0-3.8,0.7-7.4,2.2-10.9  c1.5-3.5,3.5-6.4,6-9c2.5-2.5,5.5-4.5,9-6c3.5-1.5,7.1-2.2,10.9-2.2c3.8,0,7.4,0.7,10.9,2.2c3.5,1.5,6.4,3.5,9,6  c2.5,2.5,4.5,5.5,6,9C77.3,42.6,78,46.2,78,50C78,53.8,77.3,57.4,75.8,60.9z"/>
<path d="M50,26.3c-13.1,0-23.7,10.6-23.7,23.7c0,13.1,10.6,23.7,23.7,23.7S73.7,63.1,73.7,50C73.7,36.9,63.1,26.3,50,26.3z M39.9,40  c5.7-5.7,14.6-6.2,20.9-1.6c1.2-1.2,3-3,3-3c1.1-1.1,2.1-0.1,2.1,0.8v10.4c0,0.4-0.3,0.7-0.7,0.7h-1.5c-0.4,0-0.7,0-0.7,0  s-0.3,0-0.7,0l-7.6,0c-0.6,0-1.9-0.8-0.8-2.1c0,0,1.6-1.6,3-3c-4.1-2.5-9.6-2-13.2,1.6c-2.3,2.3-3.3,5.3-3.1,8.3h-5.4  C35,47.7,36.6,43.3,39.9,40z M62.3,62.3C56.6,68,47.7,68.6,41.4,64c-1.2,1.2-3,3-3,3c-1.1,1.1-2.1,0.1-2.1-0.8V55.7  c0-0.4,0.3-0.7,0.7-0.7h1.5c0.4,0,0.7,0,0.7,0s0.3,0,0.7,0l7.6,0c0.6,0,1.9,0.8,0.8,2.1c0,0-1.6,1.6-3,3c4.1,2.5,9.6,2,13.2-1.6  c2.3-2.3,3.3-5.3,3.1-8.3l0,0v0v0H67C67.2,54.6,65.7,59,62.3,62.3z"/>
<text x="0.0" y="117.5" font-size="5.0" font-weight="bold" font-family="Helvetica Neue, Helvetica, Arial-Unicode, Arial, Sans-serif" fill="#000000">Created by sagit milshtein</text><text x="0.0" y="122.5" font-size="5.0" font-weight="bold" font-family="Helvetica Neue, Helvetica, Arial-Unicode, Arial, Sans-serif" fill="#000000">from the Noun Project</text></svg>